<?xml version="1.0" encoding="UTF-8"?>
<svg xmlns="http://www.w3.org/2000/svg" xmlns:xlink="http://www.w3.org/1999/xlink"
     width="206mm" height="106mm" viewBox="0 0 206 106" displayInline="False">
<defs>
</defs>
<g transform="translate(103.0, 101.5)">
<g stroke-width="0.1" stroke="black" fill="none">
<g>
<g transform="rotate(-7.5)">
<rect x="19.25" y="-1.8532446432425576" width="38.625" height="3.706489286485115" />
<rect x="59.625" y="-1.8532446432425576" width="38.625" height="3.706489286485115" />
</g>
<g transform="rotate(-22.5)">
<rect x="19.25" y="-1.8532446432425576" width="38.625" height="3.706489286485115" />
<rect x="59.625" y="-1.8532446432425576" width="38.625" height="3.706489286485115" />
</g>
<g transform="rotate(-37.5)">
<rect x="19.25" y="-1.8532446432425576" width="38.625" height="3.706489286485115" />
<rect x="59.625" y="-1.8532446432425576" width="38.625" height="3.706489286485115" />
</g>
<g transform="rotate(-52.5)">
<rect x="19.25" y="-1.8532446432425576" width="38.625" height="3.706489286485115" />
<rect x="59.625" y="-1.8532446432425576" width="38.625" height="3.706489286485115" />
</g>
<g transform="rotate(-67.5)">
<rect x="19.25" y="-1.8532446432425576" width="38.625" height="3.706489286485115" />
<rect x="59.625" y="-1.8532446432425576" width="38.625" height="3.706489286485115" />
</g>
<g transform="rotate(-82.5)">
<rect x="19.25" y="-1.8532446432425576" width="38.625" height="3.706489286485115" />
<rect x="59.625" y="-1.8532446432425576" width="38.625" height="3.706489286485115" />
</g>
<g transform="rotate(-97.5)">
<rect x="19.25" y="-1.8532446432425576" width="38.625" height="3.706489286485115" />
<rect x="59.625" y="-1.8532446432425576" width="38.625" height="3.706489286485115" />
</g>
<g transform="rotate(-112.5)">
<rect x="19.25" y="-1.8532446432425576" width="38.625" height="3.706489286485115" />
<rect x="59.625" y="-1.8532446432425576" width="38.625" height="3.706489286485115" />
</g>
<g transform="rotate(-127.5)">
<rect x="19.25" y="-1.8532446432425576" width="38.625" height="3.706489286485115" />
<rect x="59.625" y="-1.8532446432425576" width="38.625" height="3.706489286485115" />
</g>
<g transform="rotate(-142.5)">
<rect x="19.25" y="-1.8532446432425576" width="38.625" height="3.706489286485115" />
<rect x="59.625" y="-1.8532446432425576" width="38.625" height="3.706489286485115" />
</g>
<g transform="rotate(-157.5)">
<rect x="19.25" y="-1.8532446432425576" width="38.625" height="3.706489286485115" />
<rect x="59.625" y="-1.8532446432425576" width="38.625" height="3.706489286485115" />
</g>
<g transform="rotate(-172.5)">
<rect x="19.25" y="-1.8532446432425576" width="38.625" height="3.706489286485115" />
<rect x="59.625" y="-1.8532446432425576" width="38.625" height="3.706489286485115" />
</g>
</g>
<path d="M18.375,0 A18.375,18.375,0,0,0,-18.375,0 Z" stroke-width="0.1" stroke="black" fill="none" />
</g>
<path d="M-103.0,-106 h206 v106 h-206 Z" fill="none" stroke-width="0.1" stroke="black" transform="translate(0, 4.5)" />
</g>
</svg>