<?xml version="1.0" encoding="UTF-8" standalone="no"?>
<svg
   width="206mm"
   height="106mm"
   viewBox="0 0 206 106"
   displayInline="False"
   version="1.1"
   id="svg4509"
   sodipodi:docname="clock_face_pcb.svg"
   inkscape:version="1.2.2 (b0a84865, 2022-12-01)"
   xmlns:inkscape="http://www.inkscape.org/namespaces/inkscape"
   xmlns:sodipodi="http://sodipodi.sourceforge.net/DTD/sodipodi-0.dtd"
   xmlns="http://www.w3.org/2000/svg"
   xmlns:svg="http://www.w3.org/2000/svg">
  <sodipodi:namedview
     id="namedview4511"
     pagecolor="#ffffff"
     bordercolor="#000000"
     borderopacity="0.25"
     inkscape:showpageshadow="2"
     inkscape:pageopacity="0.0"
     inkscape:pagecheckerboard="0"
     inkscape:deskcolor="#d1d1d1"
     inkscape:document-units="mm"
     showgrid="false"
     inkscape:zoom="0.80904619"
     inkscape:cx="331.87228"
     inkscape:cy="179.22339"
     inkscape:window-width="1470"
     inkscape:window-height="778"
     inkscape:window-x="0"
     inkscape:window-y="37"
     inkscape:window-maximized="0"
     inkscape:current-layer="Edge.Cuts" />
  <defs
     id="defs4422" />
  <g
     id="Edge.Cuts"
     inkscape:groupmode="layer"
     inkscape:label="Edge.Cuts"
     transform="translate(103.0, 106)">
    <path
       id="rect4426"
       style="fill:#000000;stroke:none;stroke-width:0.1;fill-opacity:1"
       d="M 3.4407893 -106.71135 L -2.2660551 -106.71158 L -2.2656755 -66.086336 L 3.4407241 -66.086678 L 3.4407893 -106.71135 z M 24.295725 -103.96574 L 13.78135 -64.725309 L 19.29322 -63.248053 L 29.807662 -102.489 L 24.295725 -103.96574 z M -23.120969 -103.9661 L -28.632945 -102.48907 L -18.118595 -63.248372 L -12.606107 -64.725329 L -23.120969 -103.9661 z M 49.241378 -94.439413 L 28.929055 -59.257121 L 33.870932 -56.40382 L 54.183256 -91.586112 L 49.241378 -94.439413 z M -48.066908 -94.439141 L -53.008443 -91.586042 L -32.696097 -56.403685 L -27.75405 -59.256716 L -48.066908 -94.439141 z M 70.871547 -78.780596 L 42.145463 -50.054271 L 46.180183 -46.019426 L 74.906779 -74.745684 L 70.871547 -78.780596 z M -69.696672 -78.780714 L -73.732097 -74.745549 L -45.005771 -46.019465 L -40.970346 -50.05463 L -69.696672 -78.780714 z M 87.711595 -58.057523 L 52.52975 -37.745109 L 55.382781 -32.803062 L 90.565139 -53.115408 L 87.711595 -58.057523 z M 3.4406784 -64.336416 L -2.2656537 -64.336586 L -2.2658269 -26.134056 L -12.153165 -63.03479 L -17.665653 -61.557832 L -7.7777352 -24.657543 L -26.879284 -57.741545 L -31.820887 -54.887934 L -12.719405 -21.80342 L -39.733277 -48.817004 L -43.768189 -44.781772 L -16.755275 -17.768835 L -49.839103 -36.869815 L -52.692404 -31.927938 L -19.608064 -12.82689 L -56.508918 -22.714265 L -57.985662 -17.202327 L -18.745228 -6.6879521 L -17.350172 -11.892176 L -14.816172 -16.281375 L -11.232576 -19.865746 L -6.842836 -22.39953 L -1.9473485 -23.711179 L 3.1215955 -23.711527 L 8.0177968 -22.399764 L 12.40744 -19.865183 L 15.990342 -16.282302 L 18.525596 -11.891848 L 19.837244 -6.9963602 L 19.837299 -1.608466 L 60.462481 -1.6083333 L 60.462139 -7.3147329 L 22.260121 -7.3148387 L 59.160855 -17.202177 L 57.68383 -22.714152 L 20.783609 -12.826747 L 53.86703 -31.927851 L 51.013999 -36.869899 L 17.930133 -17.769374 L 44.943002 -44.781776 L 40.907837 -48.817201 L 13.8949 -21.804287 L 32.99588 -54.888115 L 28.054003 -57.741416 L 8.9531574 -24.658612 L 18.84033 -61.55793 L 13.32788 -63.034741 L 3.4406401 -26.134911 L 3.4406784 -64.336416 z M -86.537033 -58.057703 L -89.390401 -53.115313 L -54.20811 -32.80299 L -51.354809 -37.744867 L -86.537033 -58.057703 z M 98.614625 -33.682025 L 59.373857 -23.167162 L 60.850882 -17.655186 L 100.09158 -28.169536 L 98.614625 -33.682025 z M -97.439988 -33.681597 L -98.917244 -28.169727 L -59.676297 -17.655284 L -58.199554 -23.167222 L -97.439988 -33.681597 z M 102.83758 -7.3145546 L 62.212401 -7.3146872 L 62.212231 -1.6083551 L 102.83741 -1.6082225 L 102.83758 -7.3145546 z "
       transform="rotate(-7.5)" />
  </g>
</svg>
